<?xml version="1.0" standalone="no"?>
<!DOCTYPE svg PUBLIC "-//W3C//DTD SVG 20010904//EN"
 "http://www.w3.org/TR/2001/REC-SVG-20010904/DTD/svg10.dtd">
<svg version="1.0" xmlns="http://www.w3.org/2000/svg"
 width="924.000000pt" height="1283.000000pt" viewBox="0 0 924.000000 1283.000000"
 preserveAspectRatio="xMidYMid meet">
<metadata>
Created by potrace 1.15, written by Peter Selinger 2001-2017
</metadata>
<g transform="translate(0.000000,1283.000000) scale(0.100000,-0.100000)"
fill="#000000" stroke="none">
<path d="M7519 12810 c-369 -65 -868 -322 -1394 -718 -408 -306 -766 -625
-1315 -1169 l-216 -214 -299 -25 c-165 -13 -379 -36 -475 -50 -1167 -168
-2205 -733 -2863 -1558 -290 -364 -592 -936 -750 -1421 -315 -968 -263 -2225
133 -3183 71 -173 118 -270 210 -437 45 -82 82 -157 82 -165 -1 -8 -38 -136
-82 -285 -237 -786 -353 -1428 -367 -2030 -18 -746 137 -1237 450 -1424 147
-87 282 -122 497 -128 359 -11 611 77 1040 362 1163 771 2794 2719 4022 4805
493 837 1380 2653 1713 3505 348 892 620 1812 685 2318 33 262 43 470 37 791
-7 403 -28 501 -147 676 -135 198 -300 322 -473 355 -112 21 -353 19 -488 -5z
m-376 -1105 c187 -49 309 -182 422 -462 56 -137 91 -258 117 -403 47 -263 29
-1080 -24 -1080 -13 0 -43 18 -219 131 -598 385 -1261 629 -2039 750 -113 17
-207 33 -209 35 -9 8 146 157 284 274 490 412 952 676 1320 754 93 19 275 20
348 1z m-5648 -8830 c150 -125 254 -205 371 -283 290 -194 805 -449 1104 -547
63 -21 140 -49 170 -62 l55 -24 -56 -53 c-156 -146 -675 -474 -983 -622 -257
-122 -330 -138 -632 -132 -241 4 -255 9 -365 126 -184 196 -254 377 -281 721
-21 276 20 898 77 1171 14 69 29 137 32 153 5 26 13 20 197 -160 105 -104 245
-233 311 -288z"/>
<path d="M8482 8705 c-7 -14 -35 -105 -63 -203 -350 -1222 -1142 -2933 -1912
-4132 -565 -879 -1224 -1758 -1737 -2314 -182 -198 -218 -245 -199 -257 43
-27 574 13 939 71 705 113 1288 334 1835 695 878 580 1495 1473 1760 2550 98
396 128 656 128 1095 0 490 -46 904 -140 1249 -128 476 -493 1271 -582 1271
-10 0 -23 -11 -29 -25z"/>
</g>
</svg>
