<?xml version="1.0" standalone="no"?>
<!DOCTYPE svg PUBLIC "-//W3C//DTD SVG 20010904//EN"
 "http://www.w3.org/TR/2001/REC-SVG-20010904/DTD/svg10.dtd">
<svg version="1.0" xmlns="http://www.w3.org/2000/svg"
 width="500.000000pt" height="549.000000pt" viewBox="0 0 500.000000 549.000000"
 preserveAspectRatio="xMidYMid meet">
<metadata>
Created by potrace 1.15, written by Peter Selinger 2001-2017
</metadata>
<g transform="translate(0.000000,549.000000) scale(0.100000,-0.100000)"
fill="#000000" stroke="none">
<path d="M795 5476 c-83 -18 -177 -51 -255 -92 -69 -36 -200 -124 -184 -124 5
0 -5 -8 -21 -18 -17 -11 -44 -35 -60 -55 -17 -20 -48 -56 -70 -81 -44 -48
-121 -186 -155 -277 -51 -138 -49 -67 -50 -2081 0 -2020 -2 -1947 50 -2087 34
-91 109 -225 154 -275 22 -25 54 -62 69 -81 16 -19 34 -33 40 -32 7 1 11 -3
10 -10 -2 -6 6 -15 17 -18 11 -4 18 -10 15 -15 -4 -6 20 -22 32 -21 1 0 16
-13 34 -29 17 -17 35 -27 40 -24 5 3 9 1 9 -5 0 -13 55 -42 64 -34 3 4 6 2 6
-4 0 -19 179 -87 263 -100 23 -4 259 -8 525 -10 l482 -4 0 266 0 266 -297 -1
c-164 0 -319 4 -345 10 -72 14 -200 67 -265 109 -32 21 -64 40 -69 42 -6 2
-34 30 -62 62 -29 31 -52 54 -52 50 0 -17 -95 147 -121 208 -25 59 -35 93 -57
194 -10 44 -8 3062 1 3115 5 24 19 77 32 117 12 40 20 73 16 73 -3 0 -1 4 5 8
5 4 27 37 47 73 20 36 43 72 52 79 8 7 15 16 15 20 0 4 25 32 56 63 101 101
249 183 384 212 54 12 275 15 1355 15 1398 -1 1361 1 1482 -55 29 -13 53 -21
53 -17 0 4 4 2 8 -3 4 -6 28 -23 54 -38 26 -15 59 -39 74 -52 14 -13 34 -27
44 -30 10 -3 20 -15 23 -26 3 -12 10 -18 16 -14 6 3 11 -1 11 -9 0 -8 10 -22
22 -30 12 -9 19 -16 15 -16 -5 0 3 -15 17 -33 40 -53 103 -186 128 -272 l23
-80 2 -1536 c2 -933 -1 -1547 -7 -1565 -5 -16 -16 -57 -25 -91 -25 -100 -56
-160 -157 -310 -14 -22 -41 -51 -58 -64 -17 -13 -42 -33 -54 -44 -57 -51 -200
-119 -304 -146 -66 -17 -112 -19 -379 -19 l-303 0 0 -265 0 -265 470 1 c282 0
493 4 528 10 104 19 272 82 272 102 0 6 3 8 6 4 9 -8 64 21 64 34 0 6 4 8 8 5
11 -7 147 99 145 112 -2 7 4 12 12 12 8 0 21 12 29 28 8 15 18 25 22 22 12 -7
117 143 158 225 35 70 67 158 82 225 5 19 9 899 11 1955 2 1861 2 1922 -17
1994 -21 82 -59 183 -73 192 -5 3 -7 8 -6 10 6 8 -65 131 -78 136 -7 3 -13 10
-13 16 0 11 -12 25 -97 112 -92 94 -177 160 -215 167 -7 2 -15 6 -18 9 -22 27
-191 89 -294 108 -90 17 -3311 13 -3391 -3z"/>
<path d="M2425 4728 c-148 -129 -295 -270 -289 -279 3 -5 0 -9 -7 -9 -7 0 -46
-35 -88 -77 -42 -43 -65 -64 -51 -48 24 29 -88 -77 -290 -275 -53 -52 -163
-155 -244 -229 -81 -73 -145 -135 -142 -138 3 -3 -12 -18 -33 -34 -21 -15 -81
-69 -134 -120 l-95 -93 41 -45 c23 -25 82 -86 132 -136 50 -49 108 -111 129
-137 32 -40 41 -46 57 -38 18 10 227 208 389 370 47 47 74 71 60 55 -13 -17 3
-3 37 29 35 33 60 62 58 64 -2 3 15 18 38 35 23 17 86 75 139 129 l98 98 0
-1922 0 -1923 257 0 258 0 5 1925 5 1925 99 -100 c55 -55 89 -87 75 -70 -13
16 39 -33 115 -110 77 -77 131 -129 120 -115 -10 14 7 -2 39 -37 32 -34 94
-92 138 -129 44 -36 78 -68 75 -71 -2 -2 28 -34 68 -70 39 -36 76 -72 83 -80
16 -20 19 -19 61 29 20 24 78 84 128 133 50 50 109 113 131 142 23 29 43 51
45 50 7 -3 -119 120 -210 206 -45 42 -86 77 -90 77 -5 0 -19 12 -33 27 -13 14
-17 22 -9 18 19 -11 -99 100 -160 150 -25 20 -80 74 -124 118 -43 45 -70 71
-60 57 11 -14 -41 36 -115 110 -74 74 -126 124 -115 110 10 -14 -12 7 -49 47
-38 40 -73 71 -78 67 -5 -3 -9 1 -9 8 -1 7 -15 24 -32 38 -18 14 -73 66 -123
115 -94 93 -224 215 -228 214 -1 0 -33 -28 -72 -61z"/>
</g>
</svg>
