<?xml version="1.0" standalone="no"?>
<!DOCTYPE svg PUBLIC "-//W3C//DTD SVG 20010904//EN"
 "http://www.w3.org/TR/2001/REC-SVG-20010904/DTD/svg10.dtd">
<svg version="1.0" xmlns="http://www.w3.org/2000/svg"
 width="316.000000pt" height="316.000000pt" viewBox="0 0 316.000000 316.000000"
 preserveAspectRatio="xMidYMid meet">
<g transform="translate(0.000000,316.000000) scale(0.100000,-0.100000)" fill="#FFFFFF" stroke="none">
<path d="M1790 3101 c-152 -49 -336 -180 -557 -397 l-97 -95 -110 -9 c-310
-26 -589 -166 -762 -383 -77 -97 -154 -248 -189 -370 -75 -267 -43 -589 84
-823 l29 -53 -28 -93 c-107 -359 -110 -665 -7 -777 57 -61 170 -78 273 -40
279 104 761 649 1114 1259 107 186 310 603 384 790 72 184 127 357 158 500 25
115 30 314 9 373 -17 50 -67 106 -108 123 -44 19 -127 17 -193 -5z m0 -269
c38 -27 78 -117 90 -201 10 -69 4 -251 -8 -251 -3 0 -28 15 -56 34 -122 80
-284 143 -440 171 -49 8 -93 15 -99 15 -5 0 12 19 38 43 207 182 385 253 475
189z m-1311 -2166 c76 -51 210 -117 279 -137 23 -7 42 -15 42 -19 0 -14 -148
-113 -229 -153 -76 -38 -92 -42 -158 -42 -73 0 -75 1 -108 37 -53 57 -69 127
-62 272 3 67 10 144 17 172 l11 52 69 -68 c37 -37 100 -88 139 -114z"/>
<path d="M2056 2084 c-64 -232 -213 -573 -371 -850 -131 -229 -360 -546 -501
-696 -30 -31 -54 -60 -54 -63 0 -10 158 3 257 21 452 81 775 409 849 864 23
134 14 332 -20 463 -23 91 -94 257 -129 301 -14 19 -15 16 -31 -40z"/>
<path d="M2790 934 c-85 -37 -140 -120 -140 -214 0 -104 43 -172 135 -216 84
-40 174 -28 245 34 131 111 109 311 -42 386 -60 30 -142 34 -198 10z"/>
</g>
</svg>
