<?xml version="1.0" standalone="no"?>
<!DOCTYPE svg PUBLIC "-//W3C//DTD SVG 20010904//EN"
 "http://www.w3.org/TR/2001/REC-SVG-20010904/DTD/svg10.dtd">
<svg version="1.0" xmlns="http://www.w3.org/2000/svg"
 width="800.000000pt" height="149.000000pt" viewBox="0 0 800.000000 149.000000"
 preserveAspectRatio="xMidYMid meet">
<g transform="translate(0.000000,149.000000) scale(0.100000,-0.100000)"
fill="#ffffff" stroke="none">
<path d="M2439 1476 c-56 -20 -161 -80 -240 -138 l-73 -52 -100 -2 c-204 -3
-364 -89 -465 -249 -67 -106 -85 -171 -86 -310 0 -90 5 -134 18 -176 l19 -56
-32 -74 c-37 -88 -70 -217 -70 -277 0 -131 110 -181 246 -112 194 97 485 387
686 680 156 228 255 416 289 549 31 120 23 176 -31 218 -20 16 -115 16 -161
-1z m14 -125 c35 -13 51 -68 45 -153 -3 -38 -8 -71 -11 -74 -3 -3 -26 11 -53
31 -55 43 -110 71 -179 95 l-49 17 49 29 c48 28 137 63 162 64 6 0 23 -4 36
-9z m-735 -1092 l73 -48 -38 -19 c-67 -35 -129 -51 -166 -45 -29 4 -39 13 -52
40 -17 36 -16 67 7 177 l10 50 47 -54 c25 -29 79 -75 119 -101z"/>
<path d="M3119 1335 c-80 -22 -142 -58 -205 -121 -115 -115 -153 -236 -154
-496 0 -250 38 -373 153 -490 105 -107 246 -152 408 -131 199 26 360 173 410
373 19 75 19 424 0 500 -46 185 -200 337 -375 369 -77 14 -179 13 -237 -4z
m263 -164 c93 -45 157 -136 179 -257 7 -35 9 -130 7 -234 -5 -207 -21 -262
-97 -343 -55 -60 -109 -86 -194 -94 -126 -11 -225 42 -284 154 -44 82 -53 141
-53 331 0 171 9 229 46 307 28 61 104 131 160 149 68 22 178 16 236 -13z"/>
<path d="M0 720 l0 -610 86 0 87 0 -5 466 -5 466 70 -174 c39 -95 122 -303
187 -463 l116 -290 61 -3 61 -3 30 73 c16 40 95 235 175 433 80 198 151 374
159 392 11 27 13 -37 10 -433 l-4 -464 86 0 86 0 0 610 0 611 -111 -3 -111 -3
-186 -477 c-103 -263 -189 -478 -192 -478 -3 0 -13 19 -22 43 -9 23 -85 215
-168 427 -83 212 -161 409 -172 438 l-19 52 -110 0 -109 0 0 -610z"/>
<path d="M4030 720 l0 -610 90 0 90 0 0 462 0 462 33 -55 c18 -30 147 -237
286 -461 l253 -408 89 0 89 0 0 610 0 610 -90 0 -90 0 -2 -455 -3 -455 -121
192 c-67 106 -195 311 -284 456 l-163 262 -89 0 -88 0 0 -610z"/>
<path d="M5240 720 l0 -610 375 0 375 0 0 70 0 70 -285 0 -285 0 0 540 0 540
-90 0 -90 0 0 -610z"/>
<path d="M6160 720 l0 -610 410 0 410 0 0 70 0 70 -320 0 -320 0 0 210 0 210
275 0 275 0 0 70 0 70 -275 0 -275 0 0 190 0 190 315 0 315 0 0 70 0 70 -405
0 -405 0 0 -610z"/>
<path d="M7050 1260 l0 -70 195 0 195 0 0 -540 0 -540 90 0 90 0 -2 540 -3
540 193 0 192 0 0 70 0 70 -475 0 -475 0 0 -70z"/>
<path d="M2527 882 c-56 -112 -131 -232 -204 -329 -79 -105 -229 -269 -296
-323 -31 -25 -56 -51 -57 -57 0 -19 168 -17 249 2 185 44 347 204 395 390 33
132 31 221 -10 353 -9 28 -20 52 -25 52 -4 0 -28 -40 -52 -88z"/>
</g>
</svg>
