<?xml version="1.0" encoding="iso-8859-1"?>
<!-- Generator: Adobe Illustrator 19.0.0, SVG Export Plug-In . SVG Version: 6.00 Build 0)  -->
<svg version="1.1" id="Capa_1" xmlns="http://www.w3.org/2000/svg" xmlns:xlink="http://www.w3.org/1999/xlink" x="0px" y="0px"
	 viewBox="0 0 512 512" fill="white" style="enable-background:new 0 0 512 512;" xml:space="preserve">
<g>
	<g>
		<path d="M277.45,85.5c-7.267,0-14.44,0.655-21.45,1.926c-24.611,4.461-47.199,16.544-64.691,34.794
			c-6.485-1.276-13.081-1.92-19.709-1.92c-51.554,0-94.297,38.443-101.066,88.169C30.558,215.188,0,250.043,0,291.9
			c0,45.099,35.474,82.063,79.983,84.469C78.039,368.393,77,360.066,77,351.5c0-24.023,8.352-47.523,23.516-66.171
			c9.965-12.255,22.581-22.082,36.704-28.775c8.955-60.228,57.84-107.594,118.78-114.246c4.846-0.529,9.766-0.808,14.75-0.808
			c31.441,0,61.14,10.614,85.094,30.159c2.052-0.105,4.105-0.159,6.156-0.159c10.62,0,21.111,1.417,31.219,4.147
			C380.139,123.906,333.198,85.5,277.45,85.5z"/>
	</g>
</g>
<g>
	<g>
		<path d="M450.959,277.802C444.343,234.653,406.971,201.5,362,201.5c-5.471,0-10.917,0.497-16.281,1.483
			c-19.695-20.116-46.521-31.483-74.969-31.483c-5.006,0-9.929,0.36-14.75,1.041c-50.938,7.193-90.25,51.068-90.25,103.959
			c0,0.589,0.005,1.179,0.015,1.77C132.188,285.708,107,315.718,107,351.5c0,41.355,33.645,75,75,75h255c41.355,0,75-33.645,75-75
			C512,314.913,485.669,284.361,450.959,277.802z"/>
	</g>
</g>
</svg>
